<svg width="25" height="24" viewBox="0 0 25 24" fill="none" xmlns="http://www.w3.org/2000/svg">
<path d="M24.9779 12.0004C24.9779 18.0612 20.4867 23.0717 14.6521 23.8848C14.1066 23.9605 13.5484 24 12.9819 24C12.3279 24 11.6857 23.9479 11.0603 23.847C5.3485 22.9271 0.98584 17.9729 0.98584 12.0004C0.98584 5.37294 6.3572 0 12.9827 0C19.6083 0 24.9796 5.37294 24.9796 12.0004H24.9779Z" fill="#969696"/>
<path d="M15.2404 9.5724V12.1866H18.4733L17.9614 15.708H15.2404V23.8212C14.6949 23.8969 14.1367 23.9364 13.5701 23.9364C12.9162 23.9364 12.274 23.8843 11.6486 23.7834V15.708H8.66699V12.1866H11.6486V8.98803C11.6486 7.00365 13.2566 5.39429 15.2412 5.39429V5.39597C15.2471 5.39597 15.2522 5.39429 15.2581 5.39429H18.4741V8.4398H16.3727C15.7481 8.4398 15.2412 8.94683 15.2412 9.57157L15.2404 9.5724Z" fill="#1B435D"/>
</svg>
