<svg width="24" height="24" viewBox="0 0 24 24" fill="none" xmlns="http://www.w3.org/2000/svg">
<path d="M12.0169 0L11.9623 0C5.35194 0 -0.00683594 5.36035 -0.00683594 11.9727L-0.00683594 12.0273C-0.00683594 18.6397 5.35194 24 11.9623 24H12.0169C18.6273 24 23.9861 18.6397 23.9861 12.0273V11.9727C23.9861 5.36035 18.6273 0 12.0169 0Z" fill="#969696"/>
<path d="M15.7023 4.88269H8.2782C6.22716 4.88269 4.55859 6.55175 4.55859 8.60339L4.55859 15.3974C4.55859 17.449 6.22716 19.1181 8.2782 19.1181H15.7023C17.7533 19.1181 19.4219 17.449 19.4219 15.3974V8.60339C19.4219 6.55175 17.7533 4.88269 15.7023 4.88269ZM5.87075 8.60339C5.87075 7.27571 6.95091 6.19524 8.2782 6.19524H15.7023C17.0296 6.19524 18.1097 7.27571 18.1097 8.60339V15.3974C18.1097 16.725 17.0296 17.8055 15.7023 17.8055H8.2782C6.95091 17.8055 5.87075 16.725 5.87075 15.3974L5.87075 8.60339Z" fill="#1B435D"/>
<path d="M11.9901 15.4606C13.8974 15.4606 15.45 13.9084 15.45 11.9997C15.45 10.091 13.8983 8.53882 11.9901 8.53882C10.082 8.53882 8.53027 10.091 8.53027 11.9997C8.53027 13.9084 10.082 15.4606 11.9901 15.4606ZM11.9901 9.8522C13.1745 9.8522 14.1378 10.8158 14.1378 12.0005C14.1378 13.1853 13.1745 14.1489 11.9901 14.1489C10.8058 14.1489 9.84243 13.1853 9.84243 12.0005C9.84243 10.8158 10.8058 9.8522 11.9901 9.8522Z" fill="#1B435D"/>
<path d="M15.7706 9.09752C16.2842 9.09752 16.7028 8.67963 16.7028 8.16503C16.7028 7.65044 16.285 7.23254 15.7706 7.23254C15.2561 7.23254 14.8384 7.65044 14.8384 8.16503C14.8384 8.67963 15.2561 9.09752 15.7706 9.09752Z" fill="#1B435D"/>
</svg>
