<svg width="74" height="74" viewBox="0 0 74 74" fill="none" xmlns="http://www.w3.org/2000/svg">
<circle cx="37" cy="37" r="36" stroke="white" stroke-width="2"/>
<path d="M20.5 49.1289C18.1109 49.1289 16.0227 47.8914 14.2352 45.4164C14.0977 45.2273 13.9172 44.9695 13.6938 44.643C13.4875 44.3164 13.1008 43.7406 12.5336 42.9156C12.2586 42.5203 12.0094 42.1937 11.7859 41.9359C11.5797 41.6609 11.3305 41.4547 11.0383 41.3172C10.7633 41.1797 10.3852 41.1109 9.90391 41.1109C9.71484 41.1109 9.56016 41.1367 9.43984 41.1883C9.33672 41.2398 9.28516 41.3602 9.28516 41.5492V45.3391C9.28516 46.4734 9.35391 47.2211 9.49141 47.582C9.56016 47.7195 9.72344 47.8484 9.98125 47.9687C10.2563 48.0891 10.5484 48.1836 10.8578 48.2523C11.1672 48.3039 11.3906 48.3297 11.5281 48.3297C11.5969 48.3297 11.6313 48.45 11.6313 48.6906C11.6313 48.8109 11.6141 48.9398 11.5797 49.0773C10.7203 49.043 10.007 49.0086 9.43984 48.9742C8.88984 48.9398 8.48594 48.9312 8.22813 48.9484L5.08281 49.0773C5.03125 49.0258 5.00547 48.8711 5.00547 48.6133C5.00547 48.3898 5.03125 48.2781 5.08281 48.2781C5.25469 48.2781 5.46094 48.2523 5.70156 48.2008C5.95938 48.1492 6.2 48.0891 6.42344 48.0203C6.66406 47.9344 6.81016 47.8398 6.86172 47.7367C6.98203 47.5477 7.04219 46.7398 7.04219 45.3133V35.568C7.04219 35.0695 7.025 34.6312 6.99063 34.2531C6.97344 33.875 6.93047 33.5742 6.86172 33.3508C6.82734 33.2477 6.68984 33.1531 6.44922 33.0672C6.22578 32.9812 5.97656 32.9125 5.70156 32.8609C5.44375 32.8094 5.2375 32.7836 5.08281 32.7836C5.01406 32.7836 4.97969 32.6805 4.97969 32.4742C4.97969 32.2508 5.01406 32.1047 5.08281 32.0359L8.17656 32.0875C8.675 32.1047 9.28516 32.0961 10.007 32.0617C10.7289 32.0102 11.3305 31.9844 11.8117 31.9844C12.7398 31.9844 13.625 32.1648 14.4672 32.5258C15.3266 32.8867 16.0227 33.4195 16.5555 34.1242C17.1055 34.8289 17.3805 35.6883 17.3805 36.7023C17.3805 37.4242 17.1055 38.1805 16.5555 38.9711C16.0227 39.7617 15.2922 40.3719 14.3641 40.8016C14.1922 40.8703 14.1406 40.9562 14.2094 41.0594C15.0516 42.8469 16.0398 44.3594 17.1742 45.5969C18.8242 47.4016 20.1648 48.3039 21.1961 48.3039C21.2477 48.407 21.2734 48.5273 21.2734 48.6648C21.2734 48.8195 21.2477 48.9484 21.1961 49.0516C21.0242 49.1031 20.7922 49.1289 20.5 49.1289ZM11.5281 40.0023H12.1727C12.5852 40.0023 13.0063 39.8648 13.4359 39.5898C13.8828 39.3148 14.2523 38.9281 14.5445 38.4297C14.8539 37.9312 15.0086 37.3555 15.0086 36.7023C15.0086 34.3133 13.8055 33.1187 11.3992 33.1187C10.6086 33.1187 10.007 33.1789 9.59453 33.2992C9.43984 33.3336 9.34531 33.6172 9.31094 34.15C9.29375 34.6656 9.28516 35.3273 9.28516 36.1352V39.2547C9.28516 39.7531 10.0328 40.0023 11.5281 40.0023ZM22.3426 47.1227C21.0207 45.7445 20.3598 44.0641 20.3598 42.0812C20.3598 41.0969 20.5355 40.1758 20.8871 39.318C21.2387 38.4461 21.7168 37.6867 22.3215 37.0398C22.9402 36.3789 23.6574 35.8656 24.473 35.5C25.2887 35.1203 26.1605 34.9305 27.0887 34.9305C28.0168 34.9305 28.8887 35.1203 29.7043 35.5C30.5199 35.8656 31.2371 36.3789 31.8558 37.0398C32.4746 37.6867 32.9598 38.4461 33.3113 39.318C33.6629 40.1758 33.8387 41.0969 33.8387 42.0812C33.8387 44.0641 33.1777 45.7445 31.8558 47.1227C30.9558 48.0789 29.9363 48.7117 28.7973 49.0211C27.6582 49.3445 26.5191 49.3445 25.3801 49.0211C24.2551 48.7117 23.2426 48.0789 22.3426 47.1227ZM27.4262 48.3039C28.3262 48.3039 29.1137 48.0086 29.7887 47.418C30.4637 46.8414 30.9558 46.1242 31.2652 45.2664C31.5887 44.3945 31.7504 43.4664 31.7504 42.482C31.7504 41.3711 31.5676 40.3094 31.2019 39.2969C30.8363 38.2984 30.2668 37.4687 29.4933 36.8078C28.7199 36.1469 27.8129 35.8164 26.7723 35.8164C25.8863 35.8164 25.1199 36.0906 24.473 36.6391C23.8262 37.1734 23.3269 37.8836 22.9754 38.7695C22.6238 39.6414 22.448 40.5906 22.448 41.6172C22.448 42.7281 22.6308 43.7898 22.9965 44.8023C23.3621 45.8008 23.9316 46.6375 24.7051 47.3125C25.4785 47.9734 26.3855 48.3039 27.4262 48.3039ZM37.0145 49.0633C36.9583 49.007 36.9302 48.9086 36.9302 48.768C36.9302 48.5852 36.9583 48.4937 37.0145 48.4937C37.127 48.4937 37.2817 48.4727 37.4786 48.4305C37.6895 48.3883 37.8794 48.332 38.0481 48.2617C38.2309 48.1773 38.3364 48.1 38.3645 48.0297C38.4208 47.8047 38.463 47.5234 38.4911 47.1859C38.5192 46.8484 38.5333 46.4547 38.5333 46.0047V43.368C38.5333 43.1711 38.3856 42.7773 38.0903 42.1867C37.9356 41.9055 37.6403 41.3641 37.2044 40.5625C36.7684 39.7609 36.1848 38.7133 35.4536 37.4195C35.2286 36.9977 35.0528 36.7094 34.9263 36.5547C34.8138 36.3859 34.645 36.2242 34.42 36.0695C34.2653 35.957 34.0333 35.8516 33.7239 35.7531C33.4145 35.6547 33.1895 35.6055 33.0489 35.6055C32.9927 35.6055 32.9645 35.5281 32.9645 35.3734C32.9645 35.2047 32.9927 35.0922 33.0489 35.0359L34.188 35.0992C34.4552 35.1133 34.7013 35.1273 34.9263 35.1414C35.1653 35.1555 35.3833 35.1625 35.5802 35.1625C35.7489 35.1625 36.677 35.1203 38.3645 35.0359C38.3927 35.0922 38.3997 35.2047 38.3856 35.3734C38.3856 35.5281 38.3645 35.6055 38.3223 35.6055C38.0833 35.6055 37.8091 35.6687 37.4997 35.7953C37.2044 35.9078 37.0567 36.0836 37.0567 36.3227C37.0567 36.4633 37.1341 36.6742 37.2888 36.9555L39.6513 41.4273C39.7356 41.4977 39.8059 41.4836 39.8622 41.3852C41.7747 38.5023 42.7309 36.8078 42.7309 36.3016C42.7309 36.1469 42.5903 35.9922 42.3091 35.8375C42.0278 35.6828 41.6833 35.6055 41.2755 35.6055C41.2192 35.6055 41.1911 35.5211 41.1911 35.3523C41.1911 35.1977 41.2192 35.0922 41.2755 35.0359L43.7645 35.1625C43.9895 35.1766 44.2145 35.1766 44.4395 35.1625C44.6645 35.1344 44.8895 35.1133 45.1145 35.0992C45.5786 35.057 45.8739 35.0359 46.0005 35.0359C46.0286 35.1484 46.0427 35.2539 46.0427 35.3523C46.0427 35.5211 46.0145 35.6055 45.9583 35.6055C45.8458 35.6055 45.67 35.6336 45.4309 35.6898C45.1919 35.7461 44.9528 35.8234 44.7138 35.9219C44.4888 36.0203 44.327 36.1328 44.2286 36.2594C44.0177 36.5969 43.7505 37.0258 43.427 37.5461C43.1036 38.0523 42.7661 38.6008 42.4145 39.1914C42.063 39.768 41.7325 40.3234 41.4231 40.8578C41.1138 41.3781 40.8606 41.8211 40.6638 42.1867C40.4669 42.5523 40.3684 42.7773 40.3684 42.8617V46.068C40.3684 46.5039 40.3825 46.8836 40.4106 47.207C40.4388 47.5305 40.4809 47.8047 40.5372 48.0297C40.5653 48.0859 40.6638 48.1562 40.8325 48.2406C41.0153 48.3109 41.2052 48.3742 41.402 48.4305C41.5989 48.4727 41.7395 48.4937 41.8239 48.4937C41.8802 48.4937 41.9083 48.5852 41.9083 48.768C41.9083 48.8523 41.8942 48.9508 41.8661 49.0633C41.163 49.0352 40.6145 49.0141 40.2208 49C39.827 48.9719 39.588 48.9578 39.5036 48.9578L37.0145 49.0633ZM43.8607 49.0633C43.8045 49.007 43.7763 48.9016 43.7763 48.7469C43.7763 48.55 43.8045 48.4516 43.8607 48.4516C44.0295 48.4516 44.2474 48.4164 44.5146 48.3461C44.7818 48.2758 44.9646 48.1773 45.0631 48.0508C45.2178 47.8539 45.3724 47.5937 45.5271 47.2703C45.6959 46.9469 45.8717 46.5461 46.0545 46.068L49.7248 36.6391C49.8092 36.4281 49.8584 36.2805 49.8724 36.1961C49.9006 36.1117 49.9217 36.0414 49.9357 35.9852C49.9638 35.9148 50.0131 35.8023 50.0834 35.6477C50.1818 35.4508 50.2803 35.2961 50.3787 35.1836C50.4771 35.0711 50.6388 35.0148 50.8638 35.0148L51.0537 35.0781L55.2724 46.2156C55.399 46.5391 55.5115 46.8273 55.6099 47.0805C55.7224 47.3336 55.8138 47.5516 55.8842 47.7344C55.9404 47.875 56.0599 48.0016 56.2428 48.1141C56.4396 48.2125 56.6365 48.2969 56.8334 48.3672C57.0443 48.4234 57.206 48.4516 57.3185 48.4516C57.3748 48.4516 57.4029 48.5852 57.4029 48.8523C57.4029 48.8805 57.3959 48.9156 57.3818 48.9578C57.3818 48.9859 57.3748 49.0211 57.3607 49.0633C56.6576 49.0352 56.1092 49.0141 55.7154 49C55.3357 48.9719 55.1107 48.9578 55.0404 48.9578L52.5935 49.0633C52.5373 49.007 52.5092 48.8945 52.5092 48.7258C52.5232 48.543 52.5584 48.4516 52.6146 48.4516C52.7834 48.4516 52.9943 48.4164 53.2474 48.3461C53.5006 48.2758 53.6482 48.1844 53.6904 48.0719C53.7045 48.0156 53.7115 47.9594 53.7115 47.9031C53.7256 47.8469 53.7326 47.7906 53.7326 47.7344C53.7326 47.5516 53.7115 47.3406 53.6693 47.1016C53.6271 46.8484 53.5779 46.6516 53.5217 46.5109L52.5724 43.8953C52.5303 43.8391 52.4881 43.8109 52.4459 43.8109C51.8974 43.7687 51.3631 43.7477 50.8428 43.7477C50.4771 43.7477 50.0693 43.7617 49.6193 43.7898C49.1834 43.8039 48.6982 43.825 48.1638 43.8531L48.0584 43.9164L47.1513 46.2367C47.0107 46.5883 46.9123 46.8836 46.856 47.1227C46.8138 47.3617 46.7928 47.5516 46.7928 47.6922C46.7928 47.8891 46.849 48.0297 46.9615 48.1141C47.0881 48.2125 47.292 48.2969 47.5732 48.3672C47.8545 48.4234 48.0584 48.4516 48.1849 48.4516C48.2271 48.4516 48.2482 48.5359 48.2482 48.7047C48.2623 48.8734 48.2553 48.993 48.2271 49.0633L46.0545 48.9578C45.6607 48.9297 45.274 48.9367 44.8943 48.9789C44.5287 49.007 44.1842 49.0352 43.8607 49.0633ZM50.1045 42.7352C50.7373 42.7352 51.3771 42.7141 52.024 42.6719L52.0873 42.5664L50.3787 37.9047L48.5646 42.6086C48.5646 42.6648 48.5787 42.693 48.6068 42.693C48.9724 42.707 49.2748 42.7211 49.5138 42.7352C49.767 42.7352 49.9638 42.7352 50.1045 42.7352ZM67.0546 49.0844C66.3233 49.0844 65.1843 49.0633 63.6374 49.0211C62.8639 48.993 62.1608 48.9719 61.528 48.9578C60.8952 48.9437 60.3397 48.9437 59.8616 48.9578L57.3093 49.0211C57.2671 48.9789 57.246 48.8664 57.246 48.6836C57.246 48.5008 57.2671 48.4094 57.3093 48.4094C57.4499 48.4094 57.6186 48.3883 57.8155 48.3461C58.0264 48.3039 58.2233 48.2547 58.4061 48.1984C58.603 48.1281 58.7225 48.0508 58.7647 47.9664C58.8632 47.8117 58.9124 47.1508 58.9124 45.9836V38.0102C58.9124 37.082 58.8632 36.4422 58.7647 36.0906C58.7366 36.0062 58.6311 35.9359 58.4483 35.8797C58.2655 35.8094 58.0686 35.7531 57.8577 35.7109C57.6468 35.6687 57.478 35.6477 57.3514 35.6477C57.2952 35.6477 57.2671 35.5562 57.2671 35.3734C57.2671 35.2047 57.2952 35.0922 57.3514 35.0359C57.478 35.0359 57.6889 35.05 57.9843 35.0781C58.2936 35.0922 58.6241 35.1133 58.9757 35.1414C59.3272 35.1555 59.6296 35.1625 59.8827 35.1625C60.3327 35.1625 60.7827 35.1484 61.2327 35.1203C61.6827 35.0781 62.0483 35.05 62.3296 35.0359C62.3577 35.1484 62.3718 35.2539 62.3718 35.3523C62.3718 35.5492 62.3436 35.6477 62.2874 35.6477C62.203 35.6477 62.0553 35.6758 61.8444 35.732C61.6335 35.7742 61.4366 35.8305 61.2538 35.9008C61.071 35.957 60.9655 36.0203 60.9374 36.0906C60.8108 36.5687 60.7475 37.2227 60.7475 38.0523V46.0047C60.7475 46.75 60.8108 47.3687 60.9374 47.8609C60.9796 48.0016 61.4577 48.0719 62.3718 48.0719H63.3843C64.678 48.0719 65.5639 47.9523 66.0421 47.7133C66.253 47.6008 66.485 47.3547 66.7382 46.975C67.0053 46.5812 67.2163 46.1172 67.371 45.5828C67.3991 45.4984 67.4975 45.4562 67.6663 45.4562C67.9335 45.4562 68.1093 45.4984 68.1936 45.5828C68.1514 45.6953 68.0811 45.8711 67.9827 46.1102C67.8983 46.3352 67.8139 46.5672 67.7296 46.8062C67.6452 47.0453 67.5749 47.2492 67.5186 47.418C67.4343 47.6711 67.3428 47.9594 67.2444 48.2828C67.146 48.6062 67.0827 48.8734 67.0546 49.0844Z" fill="white"/>
<path d="M49.5 40.5L51.5 41L52.5 44H48L49.5 40.5Z" fill="#7C7C7C"/>
<path d="M14.1999 40.9999C17.4483 48.4247 40.4364 62.1304 49.2991 55.8852C51.8719 53.7769 53.2391 50.1611 52.5999 44.5999C53.2796 50.5137 51.8955 54.0556 49.2991 55.8852C40.3524 63.2167 16.8269 52.3178 12.3999 41.5999L13.8999 40.3999C13.9999 40.4999 14.1999 40.7599 14.1999 40.9999Z" fill="white"/>
<path d="M52.5999 44.5999C55.5999 70.6999 18.3999 50.5999 14.1999 40.9999C14.1999 40.7599 13.9999 40.4999 13.8999 40.3999L12.3999 41.5999C18.0999 55.3999 55.462 69.4999 52.5999 44.5999ZM52.5999 44.5999C52.5999 43.6999 52.1799 41.9599 50.4999 42.1999C48.3999 42.4999 47.7999 43.9999 47.7999 44.5999C47.7999 44.8999 47.8599 45.4399 48.0999 45.1999C48.2036 45.0962 48.2715 45.0642 48.3159 45.0543C48.3424 45.0484 48.3605 45.0607 48.3729 45.0709C48.3999 45.0931 48.3999 45.1999 48.3999 44.8999" stroke="white" stroke-width="0.6"/>
<path d="M31.8 19.7L31.035 14.885C31.015 14.885 30.9925 14.8875 30.9675 14.8925C30.9425 14.8975 30.92 14.9 30.9 14.9C30.65 14.9 30.4375 14.8125 30.2625 14.6375C30.0875 14.4625 30 14.25 30 14C30 13.75 30.0875 13.5375 30.2625 13.3625C30.4375 13.1875 30.65 13.1 30.9 13.1C31.15 13.1 31.3625 13.1875 31.5375 13.3625C31.7125 13.5375 31.8 13.75 31.8 14C31.8 14.07 31.7925 14.135 31.7775 14.195C31.7625 14.255 31.745 14.31 31.725 14.36L33.6 15.2L35.475 12.635C35.365 12.555 35.275 12.45 35.205 12.32C35.135 12.19 35.1 12.05 35.1 11.9C35.1 11.65 35.1875 11.4375 35.3625 11.2625C35.5375 11.0875 35.75 11 36 11C36.25 11 36.4625 11.0875 36.6375 11.2625C36.8125 11.4375 36.9 11.65 36.9 11.9C36.9 12.05 36.865 12.19 36.795 12.32C36.725 12.45 36.635 12.555 36.525 12.635L38.4 15.2L40.275 14.36C40.255 14.31 40.2375 14.255 40.2225 14.195C40.2075 14.135 40.2 14.07 40.2 14C40.2 13.75 40.2875 13.5375 40.4625 13.3625C40.6375 13.1875 40.85 13.1 41.1 13.1C41.35 13.1 41.5625 13.1875 41.7375 13.3625C41.9125 13.5375 42 13.75 42 14C42 14.25 41.9125 14.4625 41.7375 14.6375C41.5625 14.8125 41.35 14.9 41.1 14.9C41.08 14.9 41.0575 14.8975 41.0325 14.8925C41.0075 14.8875 40.985 14.885 40.965 14.885L40.2 19.7C36.9632 18.5354 35.0586 18.5727 31.8 19.7ZM32.43 18.8C35.217 18.0053 36.78 18.0188 39.6 18.8L40.2 15.2L38.1 16.1L36 13.4L33.9 16.1L31.8 15.2L32.43 18.8Z" fill="white"/>
<path fill-rule="evenodd" clip-rule="evenodd" d="M53.0807 34C51.2819 26.5413 44.5651 21 36.554 21C28.5429 21 21.826 26.5413 20.0272 34H19C20.8189 25.984 27.9876 20 36.554 20C45.1203 20 52.289 25.984 54.1079 34H53.0807Z" fill="white"/>
<path fill-rule="evenodd" clip-rule="evenodd" d="M46.1774 34C44.5932 30.0721 40.7454 27.3 36.2501 27.3C31.7549 27.3 27.907 30.0721 26.3228 34H26C27.6001 29.9026 31.5862 27 36.2501 27C40.9141 27 44.9001 29.9026 46.5002 34H46.1774Z" fill="white"/>
<path fill-rule="evenodd" clip-rule="evenodd" d="M49.2131 34C47.5117 28.5532 42.4276 24.6 36.4202 24.6C30.4128 24.6 25.3288 28.5532 23.6274 34H23C24.7211 28.217 30.0782 24 36.4202 24C42.7623 24 48.1194 28.217 49.8405 34H49.2131Z" fill="white"/>
</svg>
