<svg width="45" height="32" viewBox="0 0 45 32" fill="none" xmlns="http://www.w3.org/2000/svg">
<path d="M0 16.002C6.01263 10.5235 9.28744 10.8968 15 16.1696V17.2195C9.17923 11.6123 5.87713 11.5469 0 17.262V16.002Z" fill="black"/>
<path d="M15 17.2194C21.0126 22.6979 24.2874 22.4924 30 17.2196V16.1697C24.1792 21.7769 20.8771 21.8847 15 16.1697V17.2194Z" fill="black"/>
<path d="M30 16.1692C36.0126 10.6907 39.2874 10.6235 45 15.8963V17.1563C39.1792 11.549 35.8771 11.5042 30 17.2192V16.1692Z" fill="black"/>
<path d="M0 21.002C6.01263 15.5235 9.28744 15.8968 15 21.1696V22.2195C9.17923 16.6123 5.87713 16.5469 0 22.262V21.002Z" fill="black"/>
<path d="M15 22.2194C21.0126 27.6979 24.2874 27.4924 30 22.2196V21.1697C24.1792 26.7769 20.8771 26.8847 15 21.1697V22.2194Z" fill="black"/>
<path d="M30 21.1692C36.0126 15.6907 39.2874 15.6235 45 20.8963V22.1563C39.1792 16.549 35.8771 16.5042 30 22.2192V21.1692Z" fill="black"/>
<path d="M0 26.002C6.01263 20.5235 9.28744 20.8968 15 26.1696V27.2195C9.17923 21.6123 5.87713 21.5469 0 27.262V26.002Z" fill="black"/>
<path d="M15 27.2194C21.0126 32.6979 24.2874 32.4924 30 27.2196V26.1697C24.1792 31.7769 20.8771 31.8847 15 26.1697V27.2194Z" fill="black"/>
<path d="M30 26.1692C36.0126 20.6907 39.2874 20.6235 45 25.8963V27.1563C39.1792 21.549 35.8771 21.5042 30 27.2192V26.1692Z" fill="black"/>
<rect x="19" y="2" width="1" height="16" fill="black"/>
<rect x="25" y="2" width="1" height="16" fill="black"/>
<rect x="20" y="5" width="5" height="1" fill="black"/>
<rect x="20" y="8" width="5" height="1" fill="black"/>
<rect x="20" y="11" width="5" height="1" fill="black"/>
<rect x="20" y="14" width="5" height="1" fill="black"/>
<mask id="path-16-inside-1_167_186" fill="white">
<path fill-rule="evenodd" clip-rule="evenodd" d="M19 2H20C20 0.895431 19.1046 0 18 0C16.8954 0 16 0.895431 16 2H17C17 1.44772 17.4477 1 18 1C18.5523 1 19 1.44772 19 2Z"/>
</mask>
<path fill-rule="evenodd" clip-rule="evenodd" d="M19 2H20C20 0.895431 19.1046 0 18 0C16.8954 0 16 0.895431 16 2H17C17 1.44772 17.4477 1 18 1C18.5523 1 19 1.44772 19 2Z" fill="#D9D9D9"/>
<path d="M19 2H18V3H19V2ZM20 2V3H21V2H20ZM16 2H15V3H16V2ZM17 2V3H18V2H17ZM19 3H20V1H19V3ZM21 2C21 0.343146 19.6569 -1 18 -1V1C18.5523 1 19 1.44772 19 2H21ZM18 -1C16.3431 -1 15 0.343146 15 2H17C17 1.44772 17.4477 1 18 1V-1ZM16 3H17V1H16V3ZM18 0C16.8954 0 16 0.895431 16 2H18V0ZM20 2C20 0.895431 19.1046 0 18 0V2H20Z" fill="black" mask="url(#path-16-inside-1_167_186)"/>
<mask id="path-18-inside-2_167_186" fill="white">
<path fill-rule="evenodd" clip-rule="evenodd" d="M25 2H26C26 0.895431 25.1046 0 24 0C22.8954 0 22 0.895431 22 2H23C23 1.44772 23.4477 1 24 1C24.5523 1 25 1.44772 25 2Z"/>
</mask>
<path fill-rule="evenodd" clip-rule="evenodd" d="M25 2H26C26 0.895431 25.1046 0 24 0C22.8954 0 22 0.895431 22 2H23C23 1.44772 23.4477 1 24 1C24.5523 1 25 1.44772 25 2Z" fill="#D9D9D9"/>
<path d="M25 2H24V3H25V2ZM26 2V3H27V2H26ZM22 2H21V3H22V2ZM23 2V3H24V2H23ZM25 3H26V1H25V3ZM27 2C27 0.343146 25.6569 -1 24 -1V1C24.5523 1 25 1.44772 25 2H27ZM24 -1C22.3431 -1 21 0.343146 21 2H23C23 1.44772 23.4477 1 24 1V-1ZM22 3H23V1H22V3ZM24 0C22.8954 0 22 0.895431 22 2H24V0ZM26 2C26 0.895431 25.1046 0 24 0V2H26Z" fill="black" mask="url(#path-18-inside-2_167_186)"/>
</svg>
