<svg width="41" height="32" viewBox="0 0 41 32" fill="none" xmlns="http://www.w3.org/2000/svg">
<path d="M32.6599 17.2802C33.7991 17.2802 34.9128 16.9424 35.86 16.3095C36.8072 15.6766 37.5455 14.777 37.9814 13.7245C38.4174 12.672 38.5315 11.5139 38.3092 10.3965C38.087 9.2792 37.5384 8.25287 36.7328 7.44732C35.9273 6.64177 34.901 6.09318 33.7836 5.87093C32.6663 5.64868 31.5081 5.76275 30.4556 6.19871C29.4031 6.63467 28.5036 7.37294 27.8706 8.32017C27.2377 9.26739 26.8999 10.381 26.8999 11.5202C26.9016 13.0474 27.509 14.5114 28.5889 15.5913C29.6687 16.6711 31.1328 17.2785 32.6599 17.2802ZM32.6599 7.04025C33.546 7.04025 34.4121 7.303 35.1489 7.79527C35.8856 8.28754 36.4598 8.98722 36.7989 9.80583C37.138 10.6244 37.2267 11.5252 37.0538 12.3942C36.881 13.2633 36.4543 14.0615 35.8277 14.6881C35.2012 15.3146 34.4029 15.7413 33.5339 15.9142C32.6649 16.087 31.7641 15.9983 30.9455 15.6592C30.1269 15.3201 29.4272 14.7459 28.9349 14.0092C28.4427 13.2725 28.1799 12.4063 28.1799 11.5202C28.1813 10.3325 28.6537 9.1938 29.4936 8.35394C30.3335 7.51408 31.4722 7.04164 32.6599 7.04025Z" fill="black"/>
<path d="M32.66 12.1597C32.7441 12.1597 32.8273 12.1432 32.905 12.111C32.9826 12.0789 33.0532 12.0317 33.1126 11.9723C33.1721 11.9129 33.2192 11.8423 33.2513 11.7646C33.2835 11.687 33.3 11.6037 33.3 11.5197V8.9597C33.3 8.78996 33.2326 8.62718 33.1126 8.50715C32.9925 8.38713 32.8298 8.3197 32.66 8.3197C32.4903 8.3197 32.3275 8.38713 32.2075 8.50715C32.0874 8.62718 32.02 8.78996 32.02 8.9597V11.5197C32.02 11.6037 32.0365 11.687 32.0687 11.7646C32.1008 11.8423 32.148 11.9129 32.2074 11.9723C32.2669 12.0317 32.3374 12.0789 32.4151 12.111C32.4927 12.1432 32.576 12.1597 32.66 12.1597Z" fill="black"/>
<path d="M4.49986 6.40024H6.79487L4.04738 9.14775C3.95788 9.23724 3.89692 9.35127 3.87222 9.47541C3.84752 9.59955 3.86019 9.72822 3.90862 9.84516C3.95706 9.9621 4.03908 10.0621 4.14432 10.1324C4.24956 10.2027 4.37329 10.2402 4.49986 10.2402H8.33986C8.5096 10.2402 8.67239 10.1728 8.79241 10.0528C8.91243 9.93275 8.97986 9.76997 8.97986 9.60023C8.97986 9.43049 8.91243 9.2677 8.79241 9.14768C8.67239 9.02766 8.5096 8.96023 8.33986 8.96023H6.04486L8.79238 6.21272C8.88189 6.12322 8.94285 6.00919 8.96755 5.88505C8.99224 5.7609 8.97957 5.63223 8.93113 5.51529C8.8827 5.39835 8.80067 5.2984 8.69542 5.22808C8.59017 5.15776 8.46644 5.12023 8.33986 5.12024H4.49986C4.33012 5.12024 4.16734 5.18767 4.04732 5.30769C3.92729 5.42771 3.85986 5.5905 3.85986 5.76024C3.85986 5.92998 3.92729 6.09276 4.04732 6.21279C4.16734 6.33281 4.33012 6.40024 4.49986 6.40024Z" fill="black"/>
<path d="M0.66002 1.28H1.67502L0.20754 2.74751C0.118033 2.83701 0.0570763 2.95104 0.0323772 3.07517C0.00767804 3.19931 0.0203463 3.32799 0.0687798 3.44493C0.117213 3.56187 0.199237 3.66182 0.304477 3.73214C0.409717 3.80246 0.533447 3.83999 0.66002 3.83999H3.22002C3.38976 3.83999 3.55254 3.77256 3.67257 3.65254C3.79259 3.53252 3.86002 3.36973 3.86002 3.19999C3.86002 3.03026 3.79259 2.86747 3.67257 2.74745C3.55254 2.62742 3.38976 2.55999 3.22002 2.55999H2.20502L3.6725 1.09248C3.76201 1.00298 3.82296 0.888957 3.84766 0.764818C3.87236 0.640679 3.85969 0.512004 3.81126 0.395065C3.76283 0.278126 3.6808 0.178176 3.57556 0.107854C3.47032 0.0375332 3.34659 -4.70882e-07 3.22002 0H0.66002C0.490281 0 0.327495 0.0674284 0.207471 0.187451C0.0874479 0.307474 0.0200195 0.47026 0.0200195 0.639999C0.0200195 0.809737 0.0874479 0.972523 0.207471 1.09255C0.327495 1.21257 0.490281 1.28 0.66002 1.28Z" fill="black"/>
<path d="M39.06 30.72V30.08C39.0583 29.5139 38.8689 28.9645 38.5215 28.5177C38.174 28.0708 37.6882 27.7519 37.14 27.6108V25.6C37.14 25.4167 37.1276 25.2337 37.1217 25.0506C37.1301 25.0209 37.1363 24.9906 37.14 24.96C37.136 24.9171 37.1275 24.8747 37.1146 24.8336C37.0603 23.5588 36.8659 22.2938 36.535 21.0615C36.5131 20.9804 36.4754 20.9045 36.424 20.838C36.3727 20.7714 36.3088 20.7157 36.2359 20.6739C36.1631 20.632 36.0827 20.605 35.9994 20.5942C35.916 20.5835 35.8314 20.5893 35.7503 20.6112C35.6692 20.6332 35.5933 20.6709 35.5268 20.7222C35.4602 20.7735 35.4045 20.8374 35.3627 20.9103C35.3208 20.9832 35.2938 21.0636 35.283 21.1469C35.2723 21.2302 35.2781 21.3148 35.3 21.3959C35.5569 22.3531 35.7252 23.3319 35.8029 24.32H32.02C31.8503 24.32 31.6875 24.3874 31.5675 24.5074C31.4474 24.6274 31.38 24.7902 31.38 24.96C31.38 25.1297 31.4474 25.2925 31.5675 25.4125C31.6875 25.5325 31.8503 25.6 32.02 25.6H35.86V27.52H3.86002V25.6H28.18C28.3498 25.6 28.5125 25.5325 28.6326 25.4125C28.7526 25.2925 28.82 25.1297 28.82 24.96C28.82 24.7902 28.7526 24.6274 28.6326 24.5074C28.5125 24.3874 28.3498 24.32 28.18 24.32H3.9158C4.24156 20.3133 6.06192 16.5756 9.01554 13.8487C11.9692 11.1219 15.8401 9.6053 19.86 9.6C21.4133 9.59877 22.9577 9.83374 24.4403 10.2969C24.2301 11.6939 24.3793 13.1214 24.8738 14.4448C25.3683 15.7682 26.1918 16.9438 27.2666 17.8607C28.3414 18.7776 29.632 19.4056 31.0168 19.6854C32.4016 19.9652 33.8348 19.8876 35.1813 19.4599C36.5277 19.0323 37.7431 18.2687 38.7126 17.2411C39.6821 16.2135 40.3739 14.9559 40.7227 13.5869C41.0714 12.2179 41.0657 10.7826 40.7059 9.41638C40.3462 8.0502 39.6443 6.79818 38.6666 5.77844L39.06 5.385L39.2475 5.57252C39.3068 5.63256 39.3774 5.68028 39.4552 5.71293C39.533 5.74559 39.6165 5.76253 39.7009 5.7628C39.7852 5.76306 39.8688 5.74664 39.9468 5.71447C40.0248 5.6823 40.0957 5.63502 40.1554 5.57536C40.215 5.5157 40.2623 5.44482 40.2945 5.36682C40.3266 5.28881 40.3431 5.20522 40.3428 5.12085C40.3425 5.03647 40.3256 4.95298 40.2929 4.87518C40.2603 4.79738 40.2125 4.72681 40.1525 4.66753L38.8725 3.38753C38.7521 3.26931 38.5899 3.20342 38.4212 3.20418C38.2525 3.20495 38.0909 3.27231 37.9716 3.39161C37.8523 3.51091 37.785 3.67249 37.7842 3.84121C37.7834 4.00992 37.8493 4.17211 37.9675 4.29249L38.1551 4.48001L37.7111 4.92399C36.7844 4.21141 35.7173 3.70313 34.58 3.43259V1.92001C34.7498 1.92001 34.9125 1.85258 35.0326 1.73256C35.1526 1.61254 35.22 1.44975 35.22 1.28001C35.22 1.11028 35.1526 0.947489 35.0326 0.827466C34.9125 0.707443 34.7498 0.640015 34.58 0.640015H30.74C30.5703 0.640015 30.4075 0.707443 30.2875 0.827466C30.1674 0.947489 30.1 1.11028 30.1 1.28001C30.1 1.44975 30.1674 1.61254 30.2875 1.73256C30.4075 1.85258 30.5703 1.92001 30.74 1.92001V3.43259C29.3366 3.76749 28.0439 4.46051 26.9882 5.44401C25.9324 6.42752 25.1497 7.66793 24.7163 9.04418C24.1719 8.87734 23.6191 8.73958 23.06 8.63148V7.68C23.06 6.83131 22.7229 6.01738 22.1228 5.41726C21.5226 4.81715 20.7087 4.48001 19.86 4.48001C19.0113 4.48001 18.1974 4.81715 17.5973 5.41726C16.9972 6.01738 16.66 6.83131 16.66 7.68V8.62187C12.8286 9.34951 9.35522 11.3498 6.80297 14.2986C4.25072 17.2474 2.7692 20.9717 2.59858 24.8679C2.58703 24.8935 2.58071 24.9212 2.57999 24.9493C2.57927 24.9774 2.58417 25.0053 2.5944 25.0315C2.58826 25.2207 2.58002 25.4093 2.58002 25.6V27.6108C2.03187 27.7519 1.546 28.0708 1.19855 28.5177C0.8511 28.9645 0.661697 29.5139 0.66002 30.08V30.72C0.490281 30.72 0.327495 30.7874 0.207471 30.9074C0.0874479 31.0274 0.0200195 31.1902 0.0200195 31.36C0.0200195 31.5297 0.0874479 31.6925 0.207471 31.8125C0.327495 31.9325 0.490281 32 0.66002 32H39.06C39.2298 32 39.3925 31.9325 39.5126 31.8125C39.6326 31.6925 39.7 31.5297 39.7 31.36C39.7 31.1902 39.6326 31.0274 39.5126 30.9074C39.3925 30.7874 39.2298 30.72 39.06 30.72ZM32.02 1.92001H33.3V3.23243C33.0881 3.21618 32.876 3.20001 32.66 3.20001C32.444 3.20001 32.2319 3.21618 32.02 3.23243V1.92001ZM32.66 4.48001C34.0524 4.48001 35.4135 4.89289 36.5712 5.66646C37.729 6.44002 38.6313 7.53952 39.1641 8.82591C39.697 10.1123 39.8364 11.5278 39.5648 12.8934C39.2931 14.259 38.6226 15.5135 37.6381 16.498C36.6535 17.4826 35.3991 18.1531 34.0335 18.4247C32.6678 18.6963 31.2523 18.5569 29.9659 18.0241C28.6795 17.4913 27.58 16.5889 26.8065 15.4312C26.0329 14.2735 25.62 12.9124 25.62 11.52C25.6221 9.65352 26.3645 7.8641 27.6843 6.5443C29.0041 5.2245 30.7935 4.48212 32.66 4.48001ZM17.94 7.68C17.94 7.17079 18.1423 6.68243 18.5024 6.32236C18.8624 5.96229 19.3508 5.76 19.86 5.76C20.3692 5.76 20.8576 5.96229 21.2177 6.32236C21.5777 6.68243 21.78 7.17079 21.78 7.68V8.43945C20.505 8.28361 19.2159 8.28017 17.94 8.42921V7.68ZM1.94002 30.08C1.94041 29.7406 2.07539 29.4152 2.31535 29.1753C2.55531 28.9353 2.88066 28.8003 3.22002 28.8H36.5C36.8394 28.8003 37.1647 28.9353 37.4047 29.1753C37.6447 29.4152 37.7796 29.7406 37.78 30.08V30.72H1.94002V30.08Z" fill="black"/>
</svg>
