<svg width="33" height="32" viewBox="0 0 33 32" fill="none" xmlns="http://www.w3.org/2000/svg">
<path d="M0.5 32V30.2222H4.05556V0H21.8333V4H28.0556V30.2222H32.5V32H26.5V5H21.8333V32H0.5ZM14.7222 17.7778C15.2259 17.7778 15.6481 17.6074 15.9889 17.2667C16.3296 16.9259 16.5 16.5037 16.5 16C16.5 15.4963 16.3296 15.0741 15.9889 14.7333C15.6481 14.3926 15.2259 14.2222 14.7222 14.2222C14.2185 14.2222 13.7963 14.3926 13.4556 14.7333C13.1148 15.0741 12.9444 15.4963 12.9444 16C12.9444 16.5037 13.1148 16.9259 13.4556 17.2667C13.7963 17.6074 14.2185 17.7778 14.7222 17.7778ZM5.5 30.2222L20.5 30.2851V1H5.5V30.2222Z" fill="#1F1F1F"/>
</svg>
