<svg width="24" height="24" viewBox="0 0 24 24" fill="none" xmlns="http://www.w3.org/2000/svg">
<path d="M23.9929 12C23.9929 5.37258 18.6219 0 11.9965 0C5.37101 0 0 5.37258 0 12C0 18.6274 5.37101 24 11.9965 24C18.6219 24 23.9929 18.6274 23.9929 12Z" fill="#969696"/>
<path d="M19.5503 9.51328C19.4558 8.60175 19.2527 7.59409 18.505 7.06455C17.9258 6.65389 17.1646 6.63871 16.454 6.63955C14.9518 6.63955 13.4488 6.64209 11.9466 6.64293C10.5017 6.64462 9.05682 6.64546 7.61195 6.64715C7.00838 6.64715 6.42166 6.60077 5.86108 6.86217C5.37973 7.08647 5.00292 7.51314 4.77616 7.98788C4.46173 8.64813 4.39598 9.39608 4.35804 10.1263C4.28808 11.4561 4.29566 12.7892 4.37912 14.1182C4.44066 15.0879 4.59661 16.1596 5.34602 16.7777C6.01029 17.325 6.94768 17.3519 7.80921 17.3528C10.5438 17.3553 13.2793 17.3578 16.0148 17.3595C16.3655 17.3604 16.7313 17.3536 17.0887 17.3148C17.7918 17.239 18.462 17.0374 18.9138 16.5163C19.3698 15.991 19.487 15.2599 19.5562 14.5676C19.7248 12.8879 19.7231 11.1922 19.5503 9.51328ZM10.3651 14.3543V9.64483L14.4418 11.9991L10.3651 14.3543Z" fill="#1B435D"/>
</svg>
